<?xml version="1.0" standalone="no"?><!DOCTYPE svg PUBLIC "-//W3C//DTD SVG 1.1//EN" "http://www.w3.org/Graphics/SVG/1.1/DTD/svg11.dtd"><svg t="1530582234025" class="icon" style="" viewBox="0 0 1024 1024" version="1.1" xmlns="http://www.w3.org/2000/svg" p-id="2562" xmlns:xlink="http://www.w3.org/1999/xlink" width="32" height="32"><defs><style type="text/css"></style></defs><path d="M512 42.666667C251.733333 42.666667 42.666667 251.733333 42.666667 512s209.066667 469.333333 469.333333 469.333333c258.133333 0 469.333333-209.066667 469.333333-469.333333S770.133333 42.666667 512 42.666667zM512 938.666667C277.333333 938.666667 85.333333 746.666667 85.333333 512S277.333333 85.333333 512 85.333333c234.666667 0 426.666667 192 426.666667 426.666667S746.666667 938.666667 512 938.666667zM746.666667 426.666667c-6.4 0-10.666667 2.133333-14.933333 6.4L512 633.6l-219.733333-200.533333C288 428.8 283.733333 426.666667 277.333333 426.666667c-12.8 0-21.333333 8.533333-21.333333 21.333333 0 6.4 2.133333 10.666667 6.4 14.933333l234.666667 213.333333c4.266667 4.266667 8.533333 6.4 14.933333 6.4 6.4 0 10.666667-2.133333 14.933333-6.4l234.666667-213.333333c4.266667-4.266667 6.4-8.533333 6.4-14.933333C768 435.2 759.466667 426.666667 746.666667 426.666667z" p-id="2563"></path></svg>