<?xml version="1.0" standalone="no"?><!DOCTYPE svg PUBLIC "-//W3C//DTD SVG 1.1//EN" "http://www.w3.org/Graphics/SVG/1.1/DTD/svg11.dtd"><svg t="1484734139087" class="icon" style="" viewBox="0 0 1024 1024" version="1.1" xmlns="http://www.w3.org/2000/svg" p-id="1046" xmlns:xlink="http://www.w3.org/1999/xlink" width="200" height="200"><defs><style type="text/css"></style></defs><path d="M826.108009 678.410054l8.128454 0L834.236463 512.946558c0-5.806239-1.448038-11.277858-4.353323-16.413831-2.902215-5.135974-6.475747-9.715269-10.720595-13.731746-4.241778-4.02057-8.706646-7.14677-13.398697-9.380648-4.685911-2.230808-9.039234-3.349281-13.060992-3.349281l-43.54551 0c-5.806477 0-11.167798 1.341554-16.076799 4.02057-4.915141 2.679016-9.155896 6.142907-12.732497 10.385535-3.570462 4.242627-6.362155 9.04091-8.374058 14.402011-2.007809 5.358031-3.011714 10.492982-3.011714 15.405875l0 163.732062L665.752428 678.017104 665.752428 217.520105c0-10.270924-3.571485-19.092847-10.720595-26.462698-7.14297-7.369851-16.748115-11.05273-28.805203-11.05273l-44.886096 0c-4.016641 0-8.484579 0.781806-13.398697 2.345418-4.910024 1.563612-9.377962 3.904936-13.398697 7.03216-4.016641 3.127224-7.36606 7.14677-10.048255 12.060687-2.679125 4.909823-4.017665 10.716063-4.017665 17.414625l0 459.158515-49.577123 0L490.900097 385.665687c0-10.273994-3.234803-19.652596-9.711574-28.136827-6.47677-8.485255-16.636571-12.727882-30.483494-12.727882l-44.212732 0c-10.275439 0-19.763922 3.794419-28.471592 11.386328-8.710739 7.591909-13.065086 18.311041-13.065086 32.157397l0 289.671379-72.083619 0 0-39.688931 2.548137-2.162246-2.548137 0L292.872001 230.215242c0-34.673707-28.099093-52.721759-62.769104-52.721759-34.674105 0-62.773197 18.052145-62.773197 52.721759l0 510.566348c0 34.670637 28.099093 62.770626 62.773197 62.770626l589.236688 0c34.662848 0 48.535355-28.099988 48.535355-62.770626C867.873916 708.470697 855.813759 681.875992 826.108009 678.410054z" p-id="1047" fill="#1296db"></path></svg>