<?xml version="1.0" standalone="no"?><!DOCTYPE svg PUBLIC "-//W3C//DTD SVG 1.1//EN" "http://www.w3.org/Graphics/SVG/1.1/DTD/svg11.dtd"><svg t="1532584912265" class="icon" style="" viewBox="0 0 1024 1024" version="1.1" xmlns="http://www.w3.org/2000/svg" p-id="1998" xmlns:xlink="http://www.w3.org/1999/xlink" width="16" height="16"><defs><style type="text/css"></style></defs><path d="M771.104 145.056l0-60.096c0-17.664-14.304-32-32-32s-32 14.336-32 32l0 60.096-384 0 0-60.096c0-17.664-14.336-32-32-32s-32 14.336-32 32l0 60.096-202.208 0 0 825.952 910.208 0 0-825.952L771.104 145.056zM259.104 209.952l0 67.04c0 17.664 14.336 32 32 32s32-14.336 32-32l0-67.04 384 0 0 67.04c0 17.664 14.304 32 32 32s32-14.336 32-32l0-67.04 131.136 0 0 99.04-163.136 0-448 0-169.344 0 0-99.04L259.104 209.952zM121.76 906.176l0-533.184 780.48 0 0 533.184L121.76 906.176z" p-id="1999" fill="#1296db"></path><path d="M214.208 473.728l123.904 0 0 123.712-123.904 0 0-123.712Z" p-id="2000" fill="#1296db"></path><path d="M442.912 473.728l123.904 0 0 123.712-123.904 0 0-123.712Z" p-id="2001" fill="#1296db"></path><path d="M671.648 473.728l123.904 0 0 123.712-123.904 0 0-123.712Z" p-id="2002" fill="#1296db"></path><path d="M214.208 692.32l123.904 0 0 123.712-123.904 0 0-123.712Z" p-id="2003" fill="#1296db"></path><path d="M442.912 692.32l123.904 0 0 123.712-123.904 0 0-123.712Z" p-id="2004" fill="#1296db"></path><path d="M671.648 692.32l123.904 0 0 123.712-123.904 0 0-123.712Z" p-id="2005" fill="#1296db"></path></svg>