<?xml version="1.0" standalone="no"?><!DOCTYPE svg PUBLIC "-//W3C//DTD SVG 1.1//EN" "http://www.w3.org/Graphics/SVG/1.1/DTD/svg11.dtd"><svg t="1537930545177" class="icon" style="" viewBox="0 0 1024 1024" version="1.1" xmlns="http://www.w3.org/2000/svg" p-id="1274" xmlns:xlink="http://www.w3.org/1999/xlink" width="32" height="32"><defs><style type="text/css"></style></defs><path d="M832 287.168V0H192v278.976L0 334.08V960h1024V334.144l-192-46.976z m0 65.664l127.424 30.208L832 470.976V352.832zM256 64h512v451.136l-253.952 175.168L256 503.936V64zM192 345.088v112.64L81.6 378.048 192 345.088zM64 444.224l294.528 212.672L64 863.488V444.224zM130.368 896l283.008-198.976 99.776 71.808 103.936-71.36L872.384 896H130.368zM960 882.048l-287.616-223.296L960 460.352v421.696zM704 256H320V192h384v64zM576 384H320V320h256v64z" fill="#E7A332" p-id="1275"></path></svg>