<?xml version="1.0" standalone="no"?><!DOCTYPE svg PUBLIC "-//W3C//DTD SVG 1.1//EN" "http://www.w3.org/Graphics/SVG/1.1/DTD/svg11.dtd"><svg t="1531793472766" class="icon" style="" viewBox="0 0 1024 1024" version="1.1" xmlns="http://www.w3.org/2000/svg" p-id="5508" xmlns:xlink="http://www.w3.org/1999/xlink" width="32" height="32"><defs><style type="text/css"></style></defs><path d="M512 0C228.266667 0 0 228.266667 0 512s228.266667 512 512 512 512-228.266667 512-512S795.733333 0 512 0z m228.266667 782.933333c-8.533333 8.533333-21.333333 8.533333-29.866667 0L512 586.666667l-198.4 196.266666c-8.533333 8.533333-21.333333 8.533333-29.866667 0-8.533333-8.533333-8.533333-21.333333 0-29.866666l213.333334-211.2c8.533333-8.533333 21.333333-8.533333 29.866666 0l213.333334 211.2c8.533333 8.533333 8.533333 21.333333 0 29.866666z m0-300.8c-8.533333 8.533333-21.333333 8.533333-29.866667 0L512 285.866667l-198.4 196.266666c-8.533333 8.533333-21.333333 8.533333-29.866667 0-8.533333-8.533333-8.533333-21.333333 0-29.866666l213.333334-211.2c8.533333-8.533333 21.333333-8.533333 29.866666 0l213.333334 211.2c8.533333 8.533333 8.533333 21.333333 0 29.866666z" fill="#00acac" p-id="5509"></path></svg>