<?xml version="1.0" standalone="no"?><!DOCTYPE svg PUBLIC "-//W3C//DTD SVG 1.1//EN" "http://www.w3.org/Graphics/SVG/1.1/DTD/svg11.dtd"><svg t="1524658636598" class="icon" style="" viewBox="0 0 1024 1024" version="1.1" xmlns="http://www.w3.org/2000/svg" p-id="1974" xmlns:xlink="http://www.w3.org/1999/xlink" width="32" height="32"><defs><style type="text/css"></style></defs><path d="M296.64 416.768h441.024V180.928l-29.76 40.384-4.736 6.336-7.296-2.816-266.496-103.36H296.64v295.296z m578.816 413.568v134.528H167.808v-134.528h-31.616a104.512 104.512 0 0 1-104.256-104.192V455.808c0-57.28 46.848-104.192 104.256-104.192h98.112V59.136H439.68l2.88 0.32 330.048 41.6 27.392 3.456V351.616h87.872c57.28 0 104.128 46.912 104.128 104.192v270.336c0 57.344-46.848 104.192-104.128 104.192h-12.416z m-624.448 0v51.328h541.248v-51.328H251.008zM373.76 329.984h304.64v21.312H373.76v-21.312z m0-69.504h288.832v21.312H373.76V260.48z m0-62.592h133.376v21.312H373.76v-21.312z m355.008-39.744l-32.832 44.48-185.6-72 218.432 27.52z m0 0" p-id="1975" fill="#8a8a8a"></path></svg>