<?xml version="1.0" standalone="no"?><!DOCTYPE svg PUBLIC "-//W3C//DTD SVG 1.1//EN" "http://www.w3.org/Graphics/SVG/1.1/DTD/svg11.dtd"><svg t="1524628523280" class="icon" style="" viewBox="0 0 1024 1024" version="1.1" xmlns="http://www.w3.org/2000/svg" p-id="6356" xmlns:xlink="http://www.w3.org/1999/xlink" width="32" height="32"><defs><style type="text/css"></style></defs><path d="M643.934225 326.737249 476.072267 158.877338l0 115.676464c-145.459761 18.635411-261.083013 141.743116-261.083013 294.690401 0 152.943192 115.623252 275.994616 261.083013 294.687331l0-74.63988c-104.476389-18.583222-186.549557-108.143914-186.549557-220.047452 0-111.907631 82.074192-201.415111 186.549557-220.09964L476.072267 494.601254 643.934225 326.737249zM808.081585 531.92017c-7.434312-52.183447-26.121911-100.707556-59.669948-145.455668l-52.239729 52.183447c18.632341 29.884604 33.550083 59.72009 37.31994 93.271197L808.081585 531.919147zM550.714193 789.291655l0 74.63988c52.183447-7.431242 100.651274-26.119865 145.457714-59.667901L643.934225 752.023904C614.099762 770.708433 584.263253 785.576034 550.714193 789.291655M696.170884 699.780081l52.239729 52.243822c33.548037-44.808487 55.954327-93.219008 59.669948-145.516043L733.491847 606.507861C729.720967 640.116273 714.803225 669.952782 696.170884 699.780081" p-id="6357" fill="#8a8a8a"></path></svg>