<?xml version="1.0" standalone="no"?><!DOCTYPE svg PUBLIC "-//W3C//DTD SVG 1.1//EN" "http://www.w3.org/Graphics/SVG/1.1/DTD/svg11.dtd"><svg t="1511597420589" class="icon" style="" viewBox="0 0 1024 1024" version="1.1" xmlns="http://www.w3.org/2000/svg" p-id="2267" xmlns:xlink="http://www.w3.org/1999/xlink" width="32" height="32"><defs><style type="text/css"></style></defs><path d="M933.262 508.587l-740.267-367.787c-4.869-2.505-10.625-3.975-16.723-3.982h-3.188l-0.853 0.142h-0.711l-1.281 0.142h-0.427l-1.707 0.569c-4.523 0.809-8.534 2.551-11.987 5.022l1.32-1.040c-5.183 2.742-9.453 6.576-12.625 11.221l5.798-6.528-1.28 1.28-0.427 0.284-0.996 0.996-0.427 0.569c-0.734 0.692-1.295 1.557-1.617 2.532l0.053-0.827-0.569 0.711-0.711 0.996-0.427 0.569-0.996 1.28-0.142 0.284c-0.894 1.236-1.537 2.713-1.824 4.314l0.828-2.466c-2.486 3.835-4.134 8.428-4.581 13.369l0.599-4.125c-1.169 3.499-1.867 7.531-1.919 11.718l0.070 5.065 0.141 1.564v0.141c1.023 6.584 3.348 12.475 6.713 17.626l-0.17-0.844 218.738 344.747-220.587 348.159c-1.235 1.864-2.108 4.076-2.463 6.457l0.757-2.902-0.853 2.56-0.427 0.853-0.711 2.702-0.142 0.996-0.569 2.418v0.711c-0.182 0.986-0.287 2.123-0.291 3.284l0.006 3.543c0 3.271 0.427 6.684 1.422 9.955v0.427c1.078 3.177 1.789 6.85 1.979 10.66l-0.841-7.104c1.363 4.123 3.519 7.66 6.307 10.592l-3.462-4.335c3.266 5.806 7.433 10.704 12.371 14.683l-9.81-10.7 1.138 1.564 2.275 2.844 0.284 0.142 1.564 1.707c0.427 0 0.569 0.142 0.853 0.427 1.933 1.873 4.288 3.321 6.909 4.184l-4.491-2.050 0.996 0.711 0.569 0.427 0.853 0.284 2.276 1.422h0.141c1.063 0.831 2.367 1.402 3.791 1.596l-1.23-0.174c3.059 1.5 6.627 2.493 10.395 2.761-2.664-0.038-0.147 0.404 2.468 0.448l-1.344 0.061 2.702 0.142h0.711l1.991-0.142h0.711l2.276-0.142 1.138-0.142 2.133-0.427 0.996-0.142c0.853-0.284 1.422-0.569 2.133-0.569l0.711-0.284c1.16-0.189 2.191-0.634 3.070-1.275l-0.224 0.279c5.206-2.583 11.259-4.416 17.642-5.165l725.327-363.902c13.61-7.006 22.759-20.957 22.759-37.045 0-0.175-0.001-0.353-0.003-0.528 0.005-0.194 0.007-0.457 0.007-0.72 0-15.985-9.093-29.845-22.389-36.692z" fill="#28A8A9" p-id="2268"></path></svg>