<?xml version="1.0" standalone="no"?><!DOCTYPE svg PUBLIC "-//W3C//DTD SVG 1.1//EN" "http://www.w3.org/Graphics/SVG/1.1/DTD/svg11.dtd"><svg t="1484734197764" class="icon" style="" viewBox="0 0 1024 1024" version="1.1" xmlns="http://www.w3.org/2000/svg" p-id="1767" xmlns:xlink="http://www.w3.org/1999/xlink" width="200" height="200"><defs><style type="text/css"></style></defs><path d="M0 192l0 704 1024 0 0-704-1024 0zM384 640l0-128 256 0 0 128-256 0zM640 704l0 128-256 0 0-128 256 0zM640 320l0 128-256 0 0-128 256 0zM320 320l0 128-256 0 0-128 256 0zM64 512l256 0 0 128-256 0 0-128zM704 512l256 0 0 128-256 0 0-128zM704 448l0-128 256 0 0 128-256 0zM64 704l256 0 0 128-256 0 0-128zM704 832l0-128 256 0 0 128-256 0z" p-id="1768" fill="#1296db"></path></svg>